<svg xmlns="http://www.w3.org/2000/svg" viewBox="0 0 789 204"><path fill="#624E49" d="M25.6 132.4c-2 0-3.6-1.6-3.6-3.6v-66H6.8c-2 0-3.6-1.6-3.6-3.6v-8c0-2 1.6-3.6 3.6-3.6h48.9c2 0 3.6 1.6 3.6 3.6v8c0 2-1.6 3.6-3.6 3.6h-16v66c0 2-1.6 3.6-3.6 3.6H25.6zm43.4 0c-2 0-3.6-1.6-3.6-3.6V73.6c0-2 1.6-3.6 3.6-3.6h10.3c2 0 3.6 1.6 3.6 3.6v55.2c0 2-1.6 3.6-3.6 3.6H69zm5.2-67.8c-4.9 0-8.9-3.9-8.9-8.6 0-4.7 4-8.5 8.9-8.5 4.8 0 8.9 3.9 8.9 8.5 0 4.7-4 8.6-8.9 8.6zm50.4 70c-21.9 0-32.9-11.3-32.9-33.6 0-13.5 4-23.3 12-29.1 6.4-4.7 13.5-5.4 17.2-5.4 10.7 0 28.6 4.1 28.6 31.6 0 4.5-1 8.7-8.2 8.7h-31.8c1.2 8.9 6.3 13.3 15.2 13.3 4.3 0 8.8-.9 13.4-2.6.4-.2.8-.2 1.3-.2 1.5 0 2.9.9 3.4 2.4l2.3 6.3c.6 1.7-.1 3.5-1.6 4.4-5 2.7-13.5 4.2-18.9 4.2zM122 79.8c-9 0-11.6 7.7-12.2 14.1h23.3c-.7-9.9-4-14.1-11.1-14.1zm83 52.6c-2 0-3.6-1.6-3.6-3.6V90.3c0-8.5-5.8-9.7-9.2-9.7-6.1 0-10.8 2.4-14.6 7.4.1.9.1 2 .1 3.1v37.7c0 2-1.6 3.6-3.6 3.6h-10.2c-2 0-3.6-1.6-3.6-3.6V73.6c0-1 .4-1.9 1.1-2.6.7-.7 1.6-1.1 2.6-1.1h7.2c1.7 0 3.1 1.2 3.5 2.8l.1 2.1c2.3-2.5 8.7-8.5 20.2-8.5 10.3 0 24.1 2.5 24.1 23.8v38.5c0 2-1.6 3.6-3.6 3.6H205zm52.2 2.2c-11 0-29.4-4.4-29.4-33.9 0-11.7 3.3-20.7 9.8-26.8 7-6.4 15.4-7.4 19.8-7.4 6.2 0 11.8 1.9 16.2 5.4V51.2c0-2 1.6-3.6 3.6-3.6h10.2c2 0 3.6 1.6 3.6 3.6v77.6c0 1-.4 1.9-1.1 2.6-.7.7-1.6 1.1-2.6 1.1h-9.2c-1.9 0-3.4-1.4-3.6-3.3l-.1-1.3c-3 3-8.6 6.7-17.2 6.7zm3.1-54.3c-7.4 0-15.3 5.3-15.3 20.3 0 7.5 1.9 20 14.7 20 5.7 0 11.2-3.2 14-8.1V86.8c-3-4.3-7.5-6.5-13.4-6.5z"/><path fill="#78B800" d="M326.7 134.6c-15.4 0-25.3-7.9-25.3-20.2 0-8.1 4.4-21.7 33.4-21.7.9 0 2.1 0 5 .1v-5.7c0-1.9 0-6.2-9.2-6.2-3.9 0-7.4.6-10.8 1.8-.4.1-.8.2-1.2.2-1 0-2-.4-2.7-1.2l-5.3-5.9c-.7-.8-1.1-2-.8-3.1.2-1.1.9-2.1 1.9-2.6 4.5-2.3 11.4-3.6 19-3.6 9.8 0 26.3 2.6 26.3 20.1v42.2c0 2-1.6 3.6-3.6 3.6h-8.9c-1.6 0-3-1-3.5-2.6-4.9 3.2-9.7 4.8-14.3 4.8zm9.6-30.1c-11.9 0-17.2 2.7-17.2 8.9 0 5.1 3.1 7.6 9.4 7.6 4.9 0 8.5-1.6 11.4-3.1v-13.2c-1.8-.2-2.8-.2-3.6-.2zm76.3 27.9c-2 0-3.6-1.6-3.6-3.6V90.3c0-8.5-5.8-9.7-9.2-9.7-6.1 0-10.8 2.4-14.6 7.4.1.9.1 2 .1 3.1v37.7c0 2-1.6 3.6-3.6 3.6h-10.2c-2 0-3.6-1.6-3.6-3.6V73.6c0-1 .4-1.9 1.1-2.6.7-.7 1.6-1.1 2.6-1.1h7.2c1.7 0 3.1 1.2 3.5 2.8l.2 2.2c2.3-2.5 8.7-8.5 20.2-8.5 10.3 0 24.1 2.5 24.1 23.8v38.5c0 2-1.6 3.6-3.6 3.6h-10.6zm28.2 0c-2 0-3.6-1.6-3.6-3.6V73.6c0-2 1.6-3.6 3.6-3.6h10.3c2 0 3.6 1.6 3.6 3.6v55.2c0 2-1.6 3.6-3.6 3.6h-10.3zm5.2-67.6c-4.9 0-8.9-3.9-8.9-8.6 0-4.7 4-8.5 8.9-8.5 4.8 0 8.9 3.9 8.9 8.5 0 4.7-4 8.6-8.9 8.6zm94.4 67.6c-2 0-3.6-1.6-3.6-3.6V90.1c0-6-2.2-8.9-6.7-8.9-6.3 0-9.7 3.7-11.5 6.9.1.9.1 2 .1 3.1v37.6c0 2-1.6 3.6-3.6 3.6h-10.5c-2 0-3.6-1.6-3.6-3.6V90.1c0-6-2.2-8.9-6.6-8.9-5 0-8.9 2.3-11.6 6.9.1.9.1 2 .1 3.1v37.6c0 2-1.6 3.6-3.6 3.6H469c-2 0-3.6-1.6-3.6-3.6V73.6c0-1 .4-1.9 1.1-2.6.7-.7 1.6-1.1 2.6-1.1h7.2c1.7 0 3.1 1.2 3.5 2.8l.2 2.4c4.2-5.6 10.3-8.6 17.8-8.6 8.5 0 14.5 2.9 17.8 8.6 4.4-5.8 10.3-8.6 18-8.6 5.2 0 20.8 0 20.8 23v39.2c0 2-1.6 3.6-3.6 3.6h-10.4zm50 2.2c-15.4 0-25.3-7.9-25.3-20.2 0-8.1 4.3-21.7 33.4-21.7.9 0 2.1 0 5 .1v-5.7c0-1.9 0-6.2-9.2-6.2-3.9 0-7.4.6-10.8 1.8-.4.1-.8.2-1.2.2-1 0-2-.4-2.7-1.2l-5.3-5.9c-.7-.8-1.1-2-.9-3.1.2-1.1.9-2.1 1.9-2.6 4.5-2.3 11.4-3.6 19-3.6 9.8 0 26.3 2.6 26.3 20.1v42.2c0 2-1.6 3.6-3.6 3.6h-8.9c-1.6 0-3-1-3.5-2.6-4.8 3.2-9.6 4.8-14.2 4.8zm9.6-30.1c-11.9 0-17.2 2.7-17.2 8.9 0 5.1 3.1 7.6 9.4 7.6 4.9 0 8.5-1.6 11.4-3.1v-13.2c-1.7-.2-2.7-.2-3.6-.2zm51.8 29.5c-9.4 0-20.7-3.8-20.7-22.1V51.1c0-2 1.6-3.6 3.6-3.6h10.2c2 0 3.6 1.6 3.6 3.6v59.5c0 5.4 1.9 8.5 5.1 8.5.3 0 .8 0 1.2-.1h.4c1.5 0 2.8.9 3.4 2.3l2.7 6.8c.8 1.8-.1 4-2 4.7-1.9.7-4.5 1.2-7.5 1.2z"/><path fill="#624E49" d="M713.3 25.8c3.5-8.7.8-18.8-6.5-21.7-7.3-3-16.2 2.4-19.7 11.1s-.8 18.8 6.5 21.7c7.3 3 16.2-2.4 19.7-11.1zm71.2 28.8c3.5-8.7.8-18.8-6.5-21.7-7.3-3-16.2 2.4-19.7 11.1s-.8 18.8 6.5 21.7c7.2 2.9 16.1-2.4 19.7-11.1zm-77 49.8c-16.3-6.6-25.1-22.9-19.2-37.6 4.8-11.9 17.6-18.5 31-17.1 3.1.3 6.2 1.1 9.3 2.3 3.1 1.2 5.9 2.9 8.3 4.8 10.6 8.2 15.3 21.9 10.5 33.8-5.9 14.8-23.6 20.4-39.9 13.8zM757.9 15c-1.9-4.6-5.3-8.3-9.9-10.2-3.1-1.3-6.4-1.5-9.6-1-.3 0-.6.1-.9.2-.1 0-.3.1-.4.1-5.1 1.2-9.9 4.4-13.2 9.2-1.1 1.6-2 3.2-2.8 5.1-2.5 6.2-2.3 12.7-.1 18.1 1.9 4.6 5.3 8.3 10 10.2 3.1 1.3 6.4 1.5 9.6 1 .3 0 .6-.1.8-.2.1 0 .3-.1.5-.1 5.1-1.2 9.8-4.4 13.2-9.2 1.1-1.6 2-3.2 2.8-5.1 2.4-6.2 2.2-12.7 0-18.1zM18.6 192.1h4V168h-4v-5.3h25.9v9.9h-5.7V168H28.5v9.3H39v5.1H28.5v9.8h10.4v-4.6h5.7v9.9h-26v-5.4zM57.7 178c2.2-2.2 4.7-4.1 8.1-4.1 2.7 0 4.8 1.1 6 3 .8 1.3 1.2 2.9 1.2 4.8v11.1h3.4v4.8H64.1v-4.8h3.2V183c0-1-.2-1.8-.5-2.4-.5-1-1.5-1.5-2.9-1.5-2 0-4.1 1.2-6 2.7v10.9h3.2v4.8H48.7v-4.8h3.4v-13.5h-3.4v-4.9h9v3.7zM83 194.6c-.5-1-.8-2.2-.8-3.6v-11.9h-4.5v-4.9h4.5v-4.9l5.7-2.5v7.3h7v4.9h-7v10.8c0 .7.1 1.2.4 1.7.4.7 1.3 1.1 2.4 1.1 1.5 0 3.2-.6 4.5-1.2l-.5 5c-1.6.8-3.4 1.4-5.5 1.4-2.8 0-5-.9-6.2-3.2zm21-6.8c.8 3.6 3.8 5.2 7.6 5.2 2.8 0 5.7-.9 8.4-2.4l-.5 5.2c-2.4 1.4-5.4 2.1-8.8 2.1-7.6 0-12.8-4.8-12.8-11.9 0-6.5 4.6-12 11.7-12 7.4 0 11.2 5 11.2 11.1 0 .9-.1 2.1-.3 2.9H104zm0-4h11.2c-.1-3.2-2.2-5.3-5.5-5.3-2.5 0-5.1 1.5-5.7 5.3zm29.2-5.8c2.2-2.2 4.7-4.1 8.1-4.1 2.7 0 4.8 1.1 6 3 .8 1.3 1.2 2.9 1.2 4.8v11.1h3.4v4.8h-12.4v-4.8h3.2V183c0-1-.2-1.8-.5-2.4-.5-1-1.5-1.5-2.9-1.5-2 0-4.1 1.2-6 2.7v10.9h3.2v4.8h-12.4v-4.8h3.4v-13.5h-3.4v-4.9h9v3.7zm21 7.9c0-6.7 4.9-12.1 11.1-12.1 3 0 5.1 1.1 6.4 2.2v-12.5h-3.5v-4.9h9.2v33.9h3.4v4.8h-9.2v-2.5c-1.7 1.6-3.9 3-6.8 3-6 0-10.6-4.9-10.6-11.9zm17.5 4.6v-9.9c-1.5-1.1-3.3-1.8-5.5-1.8-3.2 0-6.1 2.5-6.1 7.1 0 4.4 2.7 7 6.1 7 2.2-.1 4-1 5.5-2.4zm18.2-2.7c.8 3.6 3.7 5.2 7.6 5.2 2.8 0 5.7-.9 8.4-2.4l-.5 5.2c-2.4 1.4-5.4 2.1-8.8 2.1-7.6 0-12.8-4.8-12.8-11.9 0-6.5 4.6-12 11.7-12 7.4 0 11.2 5 11.2 11.1 0 .9-.1 2.1-.3 2.9h-16.5zm-.1-4H201c-.1-3.2-2.2-5.3-5.5-5.3-2.5 0-5.1 1.5-5.7 5.3zm20.3 8.8h3.4v-13.5h-3.4v-4.9h9v3.6c1.8-2 4.3-4.1 7.8-4.1 2.5 0 4.3 1 5.5 2.5.3.4.5.8.7 1.3 2.2-2.1 4.8-3.8 7.7-3.8 3.2 0 5.4 1.2 6.6 3.3.6 1.2 1 2.6 1 4.3v11.1h3.4v4.8h-12.3v-4.8h3.1v-9.8c0-.9-.1-1.6-.4-2.2-.5-1.1-1.4-1.6-2.7-1.6-1.9 0-3.9 1.1-5.7 2.6v11h3.1v4.8h-12v-4.8h3.2v-9.8c0-.9-.1-1.6-.4-2.2-.5-1.1-1.4-1.6-2.7-1.6-1.9 0-3.9 1.1-5.7 2.6v11h3.1v4.8h-12.3v-4.6zm43.9-6.8c0-6.3 4.8-12 12.3-12 7.7 0 12.3 5.5 12.3 12 0 6.3-4.8 12-12.3 12-7.6 0-12.3-5.5-12.3-12zm18.7 0c0-4.2-2.6-7.2-6.4-7.2-3.7 0-6.4 3-6.4 7.2s2.6 7.2 6.4 7.2c3.8 0 6.4-2.9 6.4-7.2zm26.3-3.3c-1.8 0-3.1-1.1-3.1-2.9 0-.4 0-.7.1-1-1-.4-2.1-.6-3.3-.6-2.6 0-3.9 1.2-3.9 2.4 0 1.3 1.3 2 4.9 3 5.5 1.5 8.8 2.9 8.8 7 0 4.9-4.5 7.4-9.8 7.4-3.5 0-7.3-1.3-8.9-2.8-1-1-1.3-1.9-1.3-3.1 0-1.7 1.3-3.1 3.1-3.1 1.6 0 3.1 1.1 3.1 3.1 0 .3-.1.6-.1 1 1.1.4 2.5.7 4.2.7 2.3 0 4.2-.8 4.2-2.5 0-1.2-1-1.8-4.5-2.8-6.4-1.7-9.1-3.2-9.1-7.2 0-3.6 3-7.3 9.5-7.3 2.8 0 6.2 1.1 7.8 2.6.8.8 1.3 1.8 1.3 3-.1 1.8-1.3 3.1-3 3.1zm19.1 8.8c0-4.3 3.8-7 9.3-7 2.4 0 4.6.3 5.9.6v-1.8c0-1.4-.3-2.4-.9-3.2-1-1.2-2.5-1.7-4.5-1.7-1 0-1.7.2-2.3.4.1.3.2.8.2 1.2 0 1.7-1.4 3-3.1 3-1.7 0-3.1-1.2-3.1-3.1 0-2.9 2.9-5.9 9.2-5.9 4 0 6.7 1.1 8.3 3.1 1.2 1.5 1.8 3.5 1.8 5.8v9.9h3.4v4.8h-8.9v-2.5c-1.8 1.6-4.6 3-7.8 3-4-.1-7.5-2.3-7.5-6.6zm15.1.3V188c-1.3-.3-3-.5-4.8-.5-2.8 0-4.5 1.3-4.5 3.4 0 1.8 1.4 2.9 3.4 2.9 2.2-.2 4.2-1 5.9-2.2zm22.9 1h3.6v-29h-3.6v-4.9h9.3v33.9h3.4v4.8H356v-4.8zm15.7-1.3c0-4.3 3.8-7 9.3-7 2.4 0 4.6.3 5.9.6v-1.8c0-1.4-.3-2.4-.9-3.2-1-1.2-2.5-1.7-4.5-1.7-1 0-1.7.2-2.3.4.1.3.2.8.2 1.2 0 1.7-1.4 3-3.1 3-1.7 0-3.1-1.2-3.1-3.1 0-2.9 2.9-5.9 9.2-5.9 4 0 6.7 1.1 8.3 3.1 1.2 1.5 1.8 3.5 1.8 5.8v9.9h3.4v4.8h-8.9v-2.5c-1.8 1.6-4.6 3-7.8 3-4-.1-7.5-2.3-7.5-6.6zm15.2.3V188c-1.3-.3-3-.5-4.8-.5-2.8 0-4.5 1.3-4.5 3.4 0 1.8 1.4 2.9 3.4 2.9 2.1-.2 4.1-1 5.9-2.2zm28-9.1c-1.8 0-3.1-1.1-3.1-2.9 0-.4 0-.7.1-1-1-.4-2.1-.6-3.3-.6-2.6 0-3.9 1.2-3.9 2.4 0 1.3 1.3 2 4.9 3 5.5 1.5 8.8 2.9 8.8 7 0 4.9-4.5 7.4-9.8 7.4-3.5 0-7.3-1.3-8.9-2.8-1-1-1.3-1.9-1.3-3.1 0-1.7 1.3-3.1 3.1-3.1 1.6 0 3.1 1.1 3.1 3.1 0 .3-.1.6-.1 1 1.1.4 2.5.7 4.2.7 2.3 0 4.2-.8 4.2-2.5 0-1.2-1-1.8-4.5-2.8-6.4-1.7-9.1-3.2-9.1-7.2 0-3.6 3-7.3 9.5-7.3 2.8 0 6.2 1.1 7.8 2.6.8.8 1.3 1.8 1.3 3-.1 1.8-1.3 3.1-3 3.1zm18.9 10.1h3.4v-13.5h-3.4v-4.9h9v3.6c1.8-2 4.3-4.1 7.8-4.1 2.5 0 4.3 1 5.5 2.5.3.4.5.8.7 1.3 2.2-2.1 4.8-3.8 7.7-3.8 3.2 0 5.4 1.2 6.6 3.3.6 1.2 1 2.6 1 4.3v11.1h3.4v4.8h-12.3v-4.8h3.1v-9.8c0-.9-.1-1.6-.4-2.2-.5-1.1-1.4-1.6-2.7-1.6-1.9 0-3.9 1.1-5.7 2.6v11h3.1v4.8h-12v-4.8h3.2v-9.8c0-.9-.1-1.6-.4-2.2-.5-1.1-1.4-1.6-2.7-1.6-1.9 0-3.9 1.1-5.7 2.6v11h3.1v4.8h-12.3v-4.6zm44-1.3c0-4.3 3.8-7 9.3-7 2.4 0 4.6.3 5.9.6v-1.8c0-1.4-.3-2.4-.9-3.2-1-1.2-2.5-1.7-4.5-1.7-1 0-1.7.2-2.3.4.1.3.2.8.2 1.2 0 1.7-1.4 3-3.1 3-1.7 0-3.1-1.2-3.1-3.1 0-2.9 2.9-5.9 9.2-5.9 4 0 6.7 1.1 8.3 3.1 1.2 1.5 1.8 3.5 1.8 5.8v9.9h3.4v4.8h-8.9v-2.5c-1.8 1.6-4.6 3-7.8 3-4-.1-7.5-2.3-7.5-6.6zm15.2.3V188c-1.3-.3-3-.5-4.8-.5-2.8 0-4.5 1.3-4.5 3.4 0 1.8 1.4 2.9 3.4 2.9 2.1-.2 4.1-1 5.9-2.2zm28-9.1c-1.8 0-3.1-1.1-3.1-2.9 0-.4 0-.7.1-1-1-.4-2.1-.6-3.3-.6-2.6 0-3.9 1.2-3.9 2.4 0 1.3 1.3 2 4.9 3 5.5 1.5 8.8 2.9 8.8 7 0 4.9-4.5 7.4-9.8 7.4-3.5 0-7.3-1.3-8.9-2.8-1-1-1.3-1.9-1.3-3.1 0-1.7 1.3-3.1 3.1-3.1 1.6 0 3.1 1.1 3.1 3.1 0 .3-.1.6-.1 1 1.1.4 2.5.7 4.2.7 2.3 0 4.2-.8 4.2-2.5 0-1.2-1-1.8-4.5-2.8-6.4-1.7-9.1-3.2-9.1-7.2 0-3.6 3-7.3 9.5-7.3 2.8 0 6.2 1.1 7.8 2.6.8.8 1.3 1.8 1.3 3-.1 1.8-1.3 3.1-3 3.1zm7.3 3.1c0-6 4.9-11.8 11.7-11.8 6.3 0 10.5 4.1 10.5 7.8 0 2.4-1.6 3.9-3.7 3.9-1.9 0-3.5-1.6-3.5-3.5 0-.7.3-1.5.7-2-.4-.6-1.8-1.6-4.1-1.6-2.6 0-5.9 2.2-5.9 7.2 0 4.4 3.4 7.2 7.5 7.2 2.8 0 5.2-.8 8.2-2.4l-.5 5.2c-2.5 1.4-4.9 2.1-8.2 2.1-7.2.1-12.7-4.6-12.7-12.1zm26 .2c0-6.3 4.8-12 12.3-12 7.7 0 12.3 5.5 12.3 12 0 6.3-4.8 12-12.3 12-7.7 0-12.3-5.5-12.3-12zm18.7 0c0-4.2-2.6-7.2-6.4-7.2-3.7 0-6.4 3-6.4 7.2s2.6 7.2 6.4 7.2c3.7 0 6.4-2.9 6.4-7.2zm13.4 8.8c-.5-1-.8-2.2-.8-3.6v-11.9h-4.5v-4.9h4.5v-4.9l5.7-2.5v7.3h7v4.9h-7v10.8c0 .7.1 1.2.4 1.7.4.7 1.3 1.1 2.4 1.1 1.5 0 3.2-.6 4.5-1.2l-.5 5c-1.6.8-3.4 1.4-5.5 1.4-2.7 0-5-.9-6.2-3.2zm15.6-3.3c0-4.3 3.8-7 9.3-7 2.4 0 4.6.3 5.9.6v-1.8c0-1.4-.3-2.4-.9-3.2-1-1.2-2.5-1.7-4.5-1.7-1 0-1.7.2-2.3.4.1.3.2.8.2 1.2 0 1.7-1.4 3-3.1 3-1.7 0-3.1-1.2-3.1-3.1 0-2.9 2.9-5.9 9.2-5.9 4 0 6.7 1.1 8.3 3.1 1.2 1.5 1.8 3.5 1.8 5.8v9.9h3.4v4.8h-8.9v-2.5c-1.8 1.6-4.6 3-7.8 3-4-.1-7.5-2.3-7.5-6.6zm15.2.3V188c-1.3-.3-3-.5-4.8-.5-2.8 0-4.5 1.3-4.5 3.4 0 1.8 1.4 2.9 3.4 2.9 2.1-.2 4.1-1 5.9-2.2zm28.1-9.1c-1.8 0-3.1-1.1-3.1-2.9 0-.4 0-.7.1-1-1-.4-2.1-.6-3.3-.6-2.6 0-3.9 1.2-3.9 2.4 0 1.3 1.3 2 4.9 3 5.5 1.5 8.8 2.9 8.8 7 0 4.9-4.5 7.4-9.8 7.4-3.5 0-7.3-1.3-8.9-2.8-1-1-1.3-1.9-1.3-3.1 0-1.7 1.3-3.1 3.1-3.1 1.6 0 3.1 1.1 3.1 3.1 0 .3-.1.6-.1 1 1.1.4 2.5.7 4.2.7 2.3 0 4.2-.8 4.2-2.5 0-1.2-1-1.8-4.5-2.8-6.4-1.7-9.1-3.2-9.1-7.2 0-3.6 3-7.3 9.5-7.3 2.8 0 6.2 1.1 7.8 2.6.8.8 1.3 1.8 1.3 3-.2 1.8-1.3 3.1-3 3.1z"/></svg>